<?xml version="1.0" encoding="UTF-8" standalone="no"?>
<svg
   xmlns:dc="http://purl.org/dc/elements/1.1/"
   xmlns:cc="http://creativecommons.org/ns#"
   xmlns:rdf="http://www.w3.org/1999/02/22-rdf-syntax-ns#"
   xmlns:svg="http://www.w3.org/2000/svg"
   xmlns="http://www.w3.org/2000/svg"
   xmlns:sodipodi="http://sodipodi.sourceforge.net/DTD/sodipodi-0.dtd"
   xmlns:inkscape="http://www.inkscape.org/namespaces/inkscape"
   version="1.0"
   width="1241.4258pt"
   height="138.01546pt"
   viewBox="0 0 1241.4258 138.01546"
   preserveAspectRatio="xMidYMid meet"
   id="svg3735"
   sodipodi:docname="divider1.svg"
   inkscape:version="0.92.2 (5c3e80d, 2017-08-06)">
  <metadata
     id="metadata3741">
    <rdf:RDF>
      <cc:Work
         rdf:about="">
        <dc:format>image/svg+xml</dc:format>
        <dc:type
           rdf:resource="http://purl.org/dc/dcmitype/StillImage" />
        <dc:title></dc:title>
      </cc:Work>
    </rdf:RDF>
  </metadata>
  <defs
     id="defs3739" />
  <sodipodi:namedview
     pagecolor="#ffffff"
     bordercolor="#666666"
     borderopacity="1"
     objecttolerance="10"
     gridtolerance="10"
     guidetolerance="10"
     inkscape:pageopacity="0"
     inkscape:pageshadow="2"
     inkscape:window-width="1798"
     inkscape:window-height="746"
     id="namedview3737"
     showgrid="false"
     inkscape:zoom="0.70910507"
     inkscape:cx="827.61717"
     inkscape:cy="41.353931"
     inkscape:window-x="3"
     inkscape:window-y="100"
     inkscape:window-maximized="0"
     inkscape:current-layer="svg3735" />
  <g
     transform="matrix(0.1,0,0,0.06476251,-19.287122,-138.52046)"
     id="divider1"
     inkscape:export-filename="C:\Users\Administrator\g3733.png"
     inkscape:export-xdpi="144"
     inkscape:export-ydpi="144"
     style="fill:#b4960a;stroke:none;fill-opacity:1"
     inkscape:label="divider1">
    <title
       id="title3743">divider1</title>
    <path
       d="m 4325,4251 c 122,-26 245,-72 341,-128 109,-64 230,-186 275,-278 l 34,-70 v -150 c 0,-82 4,-157 8,-166 12,-24 52,-42 88,-41 70,2 115,93 99,199 -10,58 -2,69 41,54 42,-15 121,-14 173,1 25,8 59,31 87,58 78,78 87,185 24,281 -41,64 -138,89 -206,53 -40,-20 -73,-93 -65,-139 14,-75 111,-111 161,-60 40,39 32,96 -17,121 -37,19 -28,34 21,34 129,0 151,-207 30,-287 -35,-23 -55,-29 -118,-31 -45,-2 -92,2 -116,10 -35,11 -45,22 -80,88 -49,91 -181,232 -276,295 -148,99 -328,160 -501,170 l -93,5 z"
       id="path3721"
       inkscape:connector-curvature="0"
       style="fill:#b4960a;fill-opacity:1" />
    <path
       d="m 8396,4259 c -148,-22 -300,-80 -425,-164 -94,-62 -226,-204 -276,-295 -48,-89 -77,-103 -196,-98 -63,2 -83,8 -118,31 -121,80 -99,287 30,287 49,0 58,-15 21,-34 -49,-25 -57,-82 -17,-121 50,-51 147,-15 161,60 8,46 -25,119 -65,139 -68,36 -165,11 -206,-53 -63,-96 -54,-203 24,-281 28,-27 62,-50 87,-58 52,-15 131,-16 173,-1 43,15 51,4 41,-54 -16,-106 29,-197 99,-199 36,-1 76,17 88,41 4,9 8,84 8,166 v 150 l 34,70 c 45,92 166,214 275,278 97,57 221,103 341,127 87,18 88,18 35,18 -30,0 -82,-4 -114,-9 z"
       id="path3723"
       inkscape:connector-curvature="0"
       style="fill:#b4960a;fill-opacity:1" />
    <path
       d="m 4020,4164 c -14,-2 -59,-9 -100,-15 -171,-25 -418,-128 -604,-253 -105,-71 -278,-210 -335,-270 -40,-42 -48,-43 -94,-16 -104,62 -305,110 -456,110 -316,0 -651,-152 -817,-371 -30,-38 -44,-49 -59,-45 -118,31 -159,36 -218,25 -81,-14 -144,-48 -196,-104 -58,-63 -82,-121 -83,-199 0,-94 43,-165 126,-208 72,-37 156,-6 196,72 33,66 21,129 -31,156 -63,32 -84,-17 -44,-102 33,-71 26,-90 -31,-87 -50,4 -111,46 -136,95 -23,44 -26,130 -5,179 39,93 128,149 238,149 67,0 124,-13 146,-34 10,-9 6,-28 -17,-88 -48,-124 -62,-207 -63,-368 0,-80 6,-174 12,-209 7,-37 9,-67 4,-72 -20,-20 -320,-89 -384,-89 -35,0 -36,12 -4,54 40,52 55,100 55,173 -1,235 -255,353 -392,182 -51,-64 -50,-153 3,-214 54,-62 148,-71 203,-20 65,60 -5,185 -103,185 -23,0 -35,25 -18,38 56,45 177,0 224,-83 25,-45 30,-115 12,-179 -16,-56 -80,-121 -147,-147 -78,-31 -293,-37 -531,-15 -96,9 -176,14 -178,12 -6,-6 199,-35 334,-47 165,-15 544,-6 683,16 264,41 463,101 666,201 73,35 134,64 137,64 2,0 6,-38 9,-84 5,-105 38,-176 115,-252 184,-181 557,-219 820,-85 144,74 242,173 313,316 59,121 74,189 74,340 0,105 -4,145 -22,208 -43,152 -129,288 -246,393 -36,32 -66,64 -66,71 0,19 162,143 248,191 200,110 357,116 561,22 100,-45 127,-49 165,-19 56,44 22,111 -72,144 -98,34 -235,30 -441,-11 -58,-12 -32,16 64,67 106,57 220,95 333,111 230,32 447,-72 539,-260 36,-74 44,-190 18,-259 -34,-88 -116,-153 -195,-153 -63,0 -150,53 -127,77 4,3 27,7 53,9 84,5 139,65 139,149 0,46 -4,58 -29,84 -47,49 -144,60 -211,23 -82,-44 -119,-173 -76,-267 24,-52 99,-121 147,-134 55,-15 134,-14 185,4 92,33 150,98 188,213 14,43 31,77 36,77 17,0 17,-102 0,-168 -23,-92 -79,-200 -135,-257 -117,-120 -322,-156 -420,-73 -41,34 -64,81 -96,198 -41,147 -79,191 -159,181 -78,-9 -133,-105 -122,-213 21,-204 232,-363 482,-363 96,0 192,31 273,86 233,161 323,527 190,776 -68,127 -244,254 -408,294 -96,23 -97,23 -80,34 22,14 116,12 195,-5 275,-59 464,-298 465,-591 0,-110 -31,-212 -111,-368 -77,-150 -88,-198 -54,-236 55,-60 176,19 225,146 17,45 23,82 24,159 1,65 6,100 13,100 6,0 34,-35 62,-77 63,-93 134,-158 221,-201 59,-29 73,-32 161,-32 89,0 99,2 145,30 72,44 107,116 101,205 -10,157 -123,245 -251,196 -54,-21 -116,-86 -116,-122 0,-41 28,-82 70,-104 78,-40 131,-22 165,55 18,40 29,53 40,49 38,-15 29,-121 -14,-181 -70,-97 -224,-102 -357,-12 -105,71 -226,253 -240,360 -6,41 -3,51 32,104 51,76 53,132 9,220 -78,155 -282,293 -509,341 -71,15 -268,27 -316,18 z M 2622,3626 c 79,-15 201,-58 232,-81 17,-13 18,-16 3,-38 -22,-34 -373,-370 -496,-474 -137,-117 -270,-216 -391,-291 -132,-82 -148,-82 -84,2 129,169 163,452 67,558 -23,26 -69,23 -98,-7 -32,-32 -31,-57 4,-108 47,-68 61,-113 61,-191 -1,-169 -101,-332 -254,-412 -59,-31 -78,-28 -52,8 106,145 130,211 130,348 -1,119 -19,181 -79,265 -39,56 -39,57 37,134 140,143 361,255 568,290 86,14 271,12 352,-3 z m 432,-228 c 90,-92 147,-188 188,-318 20,-64 23,-96 23,-220 0,-133 -3,-152 -28,-225 -72,-203 -217,-348 -411,-411 -106,-35 -275,-43 -386,-20 -156,33 -300,128 -351,233 -66,135 7,307 160,380 75,35 218,44 306,18 155,-45 248,-134 262,-253 13,-118 -56,-210 -142,-188 -30,8 -32,28 -4,67 26,36 35,90 19,118 -32,61 -147,82 -210,39 -50,-35 -72,-82 -68,-150 8,-109 78,-163 213,-163 101,1 166,28 229,95 53,56 70,110 63,193 -17,194 -190,317 -444,317 -52,0 -93,4 -93,9 0,19 555,560 574,561 11,0 54,-35 100,-82 z M 1647,3142 c 102,-134 77,-352 -63,-548 -82,-116 -99,-84 -99,191 0,173 9,217 66,343 34,75 48,77 96,14 z"
       id="path3725"
       inkscape:connector-curvature="0"
       style="fill:#b4960a;fill-opacity:1" />
    <path
       d="m 8580,4165 c -8,-2 -49,-9 -90,-15 -228,-37 -454,-183 -535,-345 -44,-88 -42,-144 9,-220 35,-53 38,-63 32,-104 -17,-133 -159,-322 -290,-387 -126,-62 -245,-47 -307,39 -43,60 -52,166 -14,181 11,4 22,-9 40,-49 34,-77 87,-95 165,-55 80,41 90,121 21,183 -135,121 -306,39 -318,-153 -6,-89 29,-161 101,-205 46,-28 56,-30 145,-30 88,0 102,3 161,32 87,43 158,108 221,201 28,42 56,77 62,77 7,0 12,-35 13,-100 1,-77 7,-114 24,-159 49,-127 170,-206 225,-146 34,38 23,85 -54,235 -81,157 -111,259 -111,369 1,293 190,532 465,591 79,17 173,19 195,5 17,-11 16,-11 -80,-34 -164,-40 -340,-167 -408,-294 -133,-249 -43,-615 190,-776 194,-133 469,-109 643,55 122,115 150,300 60,397 -30,33 -39,37 -84,37 -76,0 -102,-31 -142,-170 -37,-131 -58,-174 -99,-208 -98,-83 -303,-47 -420,73 -56,57 -112,165 -135,257 -17,66 -17,162 0,166 6,1 22,-32 36,-75 38,-115 96,-180 188,-213 51,-18 130,-19 185,-4 48,13 123,82 147,134 43,94 6,223 -76,267 -67,37 -164,26 -211,-23 -25,-26 -29,-38 -29,-84 0,-84 55,-144 139,-149 26,-2 49,-6 53,-9 23,-24 -64,-77 -127,-77 -79,0 -161,65 -195,153 -28,75 -18,186 24,270 91,179 307,280 533,249 113,-16 227,-54 333,-111 96,-51 122,-79 64,-67 -206,41 -343,45 -441,11 -94,-33 -128,-100 -72,-144 38,-30 65,-26 165,19 204,94 361,88 561,-22 86,-48 248,-172 248,-191 0,-7 -30,-39 -66,-71 -117,-105 -203,-241 -246,-393 -29,-102 -31,-304 -4,-403 90,-334 366,-540 722,-540 254,0 467,107 550,275 22,45 29,76 32,141 3,46 7,84 9,84 3,0 64,-29 137,-64 203,-100 402,-160 666,-201 139,-22 518,-31 683,-16 135,12 340,41 334,47 -2,2 -82,-3 -178,-12 -238,-22 -453,-16 -531,15 -170,66 -217,295 -79,388 64,43 143,51 171,18 13,-16 3,-24 -60,-45 -83,-28 -118,-125 -64,-175 55,-51 149,-42 203,20 98,112 3,294 -153,295 -131,0 -235,-116 -236,-263 0,-73 15,-121 55,-173 32,-42 31,-54 -4,-54 -64,0 -364,69 -384,89 -5,5 -3,35 4,72 6,35 12,129 11,209 0,162 -14,245 -62,368 -23,60 -27,79 -17,88 22,21 79,34 146,34 110,0 199,-56 238,-147 19,-47 17,-141 -6,-183 -25,-47 -87,-90 -135,-93 -57,-3 -64,16 -31,87 17,36 25,66 21,80 -18,70 -116,12 -116,-69 0,-38 35,-100 70,-125 45,-32 98,-36 146,-12 83,43 125,113 125,207 0,197 -201,346 -408,301 -37,-9 -77,-18 -88,-21 -16,-5 -29,5 -59,45 -166,218 -502,370 -817,370 -151,0 -352,-48 -456,-110 -19,-11 -39,-20 -45,-20 -6,0 -38,26 -72,58 -283,264 -600,440 -896,498 -71,14 -288,27 -320,19 z m 1940,-535 c 150,-24 338,-100 455,-184 55,-39 171,-151 186,-178 6,-12 2,-24 -15,-45 -64,-77 -101,-201 -93,-313 8,-115 40,-191 133,-318 26,-36 7,-39 -52,-8 -153,80 -253,243 -254,414 0,79 12,117 59,186 37,54 39,79 6,111 -29,30 -75,33 -98,7 -96,-106 -62,-389 67,-558 64,-84 48,-84 -84,-2 -121,75 -254,174 -391,291 -123,104 -474,440 -496,474 -15,22 -14,25 3,38 29,22 151,65 224,80 80,16 262,18 350,5 z m -381,-422 c 152,-150 277,-279 279,-285 3,-10 -20,-13 -90,-13 -202,0 -349,-73 -414,-206 -31,-63 -41,-152 -24,-213 15,-57 86,-132 153,-162 69,-31 193,-33 250,-5 59,29 90,77 95,144 4,68 -18,115 -68,150 -63,43 -178,22 -210,-39 -16,-28 -7,-82 19,-118 28,-39 26,-59 -4,-67 -86,-22 -155,70 -142,188 14,119 107,208 262,253 79,23 229,16 298,-13 66,-30 140,-102 168,-165 68,-153 -7,-305 -196,-398 -110,-54 -202,-72 -345,-66 -295,11 -510,168 -607,442 -25,73 -28,92 -28,225 0,124 3,156 23,220 41,130 98,226 188,318 44,45 89,82 99,82 11,0 136,-116 294,-272 z m 1119,-100 c 53,-124 65,-200 58,-373 -3,-82 -8,-162 -12,-177 -11,-46 -38,-34 -88,36 -145,203 -166,429 -51,564 15,18 35,32 44,30 9,-2 30,-36 49,-80 z"
       id="path3727"
       inkscape:connector-curvature="0"
       style="fill:#b4960a;fill-opacity:1" />
    <path
       d="m 6310,4099 c -127,-85 -235,-205 -312,-347 -21,-39 -76,-55 -174,-50 -79,4 -124,27 -162,82 -66,96 -12,242 86,234 46,-4 50,-19 12,-40 -36,-20 -45,-39 -36,-73 18,-72 95,-88 152,-31 38,38 44,74 20,130 -38,91 -169,104 -243,24 -54,-58 -70,-175 -33,-247 52,-103 174,-143 322,-106 l 27,7 -6,-74 c -6,-84 6,-134 40,-166 37,-34 97,-33 134,4 l 26,26 -7,128 c -7,155 7,215 77,313 55,77 141,157 169,157 37,0 161,-137 204,-226 l 39,-78 -3,-148 c -3,-146 -3,-148 22,-173 36,-36 96,-37 133,-3 34,32 46,82 40,166 l -6,74 27,-7 c 15,-3 55,-9 90,-12 144,-12 252,78 252,212 0,124 -70,205 -178,205 -58,0 -97,-25 -118,-76 -24,-56 -18,-92 20,-130 57,-57 134,-41 152,31 9,34 0,53 -36,73 -38,22 -33,36 14,40 31,3 42,-2 71,-31 80,-80 41,-225 -73,-273 -40,-17 -141,-18 -195,-3 -27,7 -44,20 -55,41 -46,84 -117,180 -179,239 -69,67 -200,159 -225,159 -7,0 -47,-23 -88,-51 z"
       id="path3729"
       inkscape:connector-curvature="0"
       style="fill:#b4960a;fill-opacity:1" />
    <path
       d="m 6342,3888 c -97,-128 -109,-199 -49,-295 22,-36 37,-74 37,-92 0,-120 -154,-339 -283,-405 -171,-86 -327,-28 -353,131 -12,79 44,122 59,45 18,-88 132,-109 204,-37 45,45 45,90 1,140 -63,73 -152,94 -228,55 -100,-51 -139,-213 -78,-321 62,-111 235,-143 383,-70 84,41 178,130 230,215 22,36 45,64 50,63 6,-2 12,-50 16,-108 5,-111 20,-171 50,-210 l 19,-24 19,24 c 30,39 45,99 50,210 4,58 11,106 16,108 6,1 28,-27 50,-63 52,-85 146,-174 230,-215 154,-75 328,-39 391,83 22,42 28,112 15,165 -43,172 -215,218 -329,88 -44,-50 -44,-95 1,-140 72,-72 186,-51 204,37 15,77 71,34 59,-45 -26,-158 -179,-216 -352,-132 -127,62 -284,286 -284,406 0,18 15,56 38,92 44,72 47,127 12,198 -33,66 -100,149 -120,149 -10,0 -36,-24 -58,-52 z"
       id="path3731"
       inkscape:connector-curvature="0"
       style="fill:#b4960a;fill-opacity:1" />
  </g>
</svg>
