<?xml version="1.0" encoding="UTF-8" standalone="no"?>
<!-- Created with Inkscape (http://www.inkscape.org/) -->

<svg
   xmlns:dc="http://purl.org/dc/elements/1.1/"
   xmlns:cc="http://creativecommons.org/ns#"
   xmlns:rdf="http://www.w3.org/1999/02/22-rdf-syntax-ns#"
   xmlns:svg="http://www.w3.org/2000/svg"
   xmlns="http://www.w3.org/2000/svg"
   xmlns:sodipodi="http://sodipodi.sourceforge.net/DTD/sodipodi-0.dtd"
   xmlns:inkscape="http://www.inkscape.org/namespaces/inkscape"
   version="1.1"
   id="svg3699"
   width="200"
   height="200"
   viewBox="0 0 200 200"
   sodipodi:docname="oratai_logo5.svg"
   inkscape:version="0.92.2 (5c3e80d, 2017-08-06)">
  <metadata
     id="metadata3705">
    <rdf:RDF>
      <cc:Work
         rdf:about="">
        <dc:format>image/svg+xml</dc:format>
        <dc:type
           rdf:resource="http://purl.org/dc/dcmitype/StillImage" />
        <dc:title></dc:title>
      </cc:Work>
    </rdf:RDF>
  </metadata>
  <defs
     id="defs3703" />
  <sodipodi:namedview
     pagecolor="#ffffff"
     bordercolor="#666666"
     borderopacity="1"
     objecttolerance="10"
     gridtolerance="10"
     guidetolerance="10"
     inkscape:pageopacity="0"
     inkscape:pageshadow="2"
     inkscape:window-width="1319"
     inkscape:window-height="847"
     id="namedview3701"
     showgrid="false"
     inkscape:zoom="2.2766005"
     inkscape:cx="100"
     inkscape:cy="100"
     inkscape:window-x="126"
     inkscape:window-y="18"
     inkscape:window-maximized="0"
     inkscape:current-layer="svg3699" />
  <g
     id="g3709"
     transform="translate(-2e-7,0.4392512)">
    <path
       style="fill:#fdfcf9"
       d="M 0,100 V 0 H 100 200 V 100 200 H 100 0 Z"
       id="path3725"
       inkscape:connector-curvature="0" />
    <path
       style="fill:#d2a95a"
       d="M 91.5,187.99797 C 58.08759,183.94181 29.281931,160.15451 18.238894,127.5 14.607786,116.76273 13.831616,111.6989 13.870495,99 13.9251,81.164832 16.961292,69.335583 25.256212,54.640325 30.212423,45.859917 31.514533,44.144958 39.307361,36.134104 53.867164,21.16695 70.200001,13.024474 91.869412,9.9301306 105.63868,7.9639101 123.58069,10.754829 137.59575,17.042962 c 19.84418,8.903477 37.49399,27.474851 45.74162,48.129948 5.19519,13.01065 6.16276,18.323251 6.16082,33.82709 -0.002,17.63587 -1.43265,23.91667 -8.99605,39.5 C 169.65,160.85933 152.30357,176.19411 129,184.0295 c -12.75739,4.28943 -24.56392,5.53887 -37.5,3.96847 z"
       id="path3723"
       inkscape:connector-curvature="0" />
    <path
       style="fill:#ca9731"
       d="M 90.430268,186.01846 C 69.392914,183.04544 46.074713,169.49846 33.905158,153.17955 27.415789,144.47755 20.590283,130.53644 17.905395,120.5 14.902437,109.27457 14.889707,88.912592 17.878513,77.5 20.625674,67.010116 28.589576,51.098251 35.067095,43.157239 41.886236,34.79742 54.555064,24.825558 64.55398,19.947582 106.87354,-0.69803464 157.22949,16.743692 178.74565,59.5 c 6.0062,11.93536 8.45966,21.779554 8.97225,36 0.58761,16.30182 -1.5936,27.34164 -8.06614,40.82545 -9.36412,19.50762 -22.96468,33.23554 -41.74051,42.13137 -13.93999,6.60464 -32.89367,9.62314 -47.480982,7.56164 z"
       id="path3721"
       inkscape:connector-curvature="0" />
    <path
       style="fill:#b6882c"
       d="M 85.801949,179.47869 C 64.376386,175.21353 44.988718,161.5268 33.810997,142.77566 c -5.201677,-8.72605 -9.180286,-18.6182 -10.816886,-26.89438 -2.416352,-12.21934 0.596422,-12.95346 11.683436,-2.84687 4.244245,3.86892 10.529111,8.4189 13.966369,10.11105 5.809659,2.86009 6.869212,3.05124 15.052822,2.7156 L 72.5,125.5 l -0.347658,7.63501 c -0.495607,10.88416 1.576095,15.02514 13.182565,26.34969 11.788834,11.50249 16.814943,15.04065 19.400323,13.657 3.80293,-2.03527 21.01543,-20.99518 23.24913,-25.60939 2.04215,-4.21852 2.22431,-5.65613 1.65508,-13.06164 l -0.63963,-8.32139 9.75009,0.17536 c 9.1342,0.16428 10.06433,-0.009 14.72448,-2.74829 2.73591,-1.60801 9.08005,-6.89551 14.09808,-11.75 12.33175,-11.929838 15.42045,-11.80146 13.44588,0.55887 -4.43423,27.75712 -23.25956,52.02026 -48.51834,62.53311 -13.971,5.81481 -31.6995,7.54611 -46.698051,4.56036 z m 8.743827,-50.55173 C 89.551528,127.68848 82.053153,122.91574 79.343385,119.25058 73.854939,111.82706 72.564947,107.87684 72.567036,98.5 c 0.0017,-7.781 0.3581,-9.677222 2.631087,-14 7.99697,-15.208679 24.417162,-20.902336 39.238467,-13.605832 6.52529,3.212388 9.5278,6.312458 13.66195,14.105832 2.01006,3.789195 2.38511,5.921609 2.37443,13.5 -0.0148,10.49088 -2.23787,16.2649 -8.78161,22.80864 -6.77621,6.77621 -17.92456,9.90496 -27.145584,7.61832 z m 14.687094,-9.37979 c 4.02465,-1.68161 9.40773,-7.44275 11.39223,-12.19232 2.15592,-5.15986 1.70397,-14.099823 -0.97848,-19.35485 -4.27441,-8.373761 -14.05389,-13.38728 -22.496475,-11.532977 -5.228426,1.148355 -11.092563,6.21227 -13.713995,11.842578 -5.453632,11.713309 -1.365008,24.975779 9.464184,30.699439 4.329851,2.2885 11.572206,2.52712 16.332536,0.53813 z M 22.666667,94.333333 C 21.67249,93.339157 21.859741,87.781002 23.088934,81.799221 26.858033,63.457162 38.566064,44.518172 52.830824,33.68854 67.694536,22.40419 83.207078,17.053356 101.16203,17.017364 c 31.26622,-0.06268 58.2399,16.619506 72.2141,44.661638 C 180.06319,75.097973 183.41256,93 179.23612,93 c -0.97014,0 -4.68264,-2.612494 -8.25,-5.805542 -15.8228,-14.162545 -22.65277,-17.307203 -33.11813,-15.248269 -3.23913,0.63726 -6.36847,0.862532 -6.95408,0.500603 -0.69906,-0.432043 -0.83102,-3.152368 -0.3842,-7.920545 0.88055,-9.396844 -1.14337,-14.214231 -9.7276,-23.153814 -7.56273,-7.875795 -18.99887,-17.373732 -20.913429,-17.369003 -2.244569,0.0055 -16.553802,13.667817 -21.309829,20.346353 -5.586111,7.84416 -6.966473,12.744361 -5.507017,19.549571 0.601844,2.806298 0.906243,5.664474 0.676443,6.351503 C 73.451377,71.138497 70.438709,71.5 63.338254,71.5 c -9.953461,0 -10.015174,0.01522 -15.91523,3.925594 -3.257663,2.159077 -9.516018,7.446577 -13.907455,11.75 -7.649522,7.49621 -9.373204,8.633437 -10.848902,7.157739 z"
       id="path3719"
       inkscape:connector-curvature="0" />
    <path
       style="fill:#966d24"
       d="M 85.5,178.47971 C 55.376482,171.85519 32.088119,148.78896 24.437852,118 c -1.960255,-7.88917 -1.850575,-11 0.387834,-11 1.004127,0 2.916627,1.16948 4.25,2.59884 4.675384,5.01196 14.796485,12.45329 20.472038,15.05164 5.249514,2.40331 6.434455,2.56908 14.133614,1.97727 l 8.403713,-0.64596 -0.664961,7.33811 c -0.783492,8.64613 0.730855,12.97693 7.466011,21.35163 C 83.736004,160.70206 100.93954,175 103.34568,175 c 2.97811,0 21.99258,-19.91972 25.10909,-26.3045 2.61539,-5.35815 2.78652,-6.41054 2.2255,-13.68578 l -0.60776,-7.88129 9.21374,0.18579 c 8.54422,0.17228 9.60751,-0.0322 14.63239,-2.81422 2.98025,-1.65 9.49569,-6.95067 14.47876,-11.77927 4.99054,-4.83584 9.74342,-8.63702 10.58136,-8.46258 3.47951,0.72437 0.28094,17.09678 -5.90815,30.24185 -10.25891,21.78901 -29.96795,37.9262 -53.07061,43.45267 -9.88323,2.36421 -25.089566,2.5965 -34.5,0.52704 z m 9.233404,-50.56798 C 87.480072,126.20292 80.265653,120.21579 76.162452,112.5 c -2.323947,-4.37003 -2.654118,-6.13395 -2.62051,-14 0.0314,-7.350255 0.451459,-9.787306 2.291567,-13.29506 5.588382,-10.653003 14.554504,-16.422607 25.648401,-16.504476 10.76072,-0.07941 19.97235,5.662207 25.34817,15.799536 2.30189,4.340729 2.6515,6.186687 2.6515,14 0,7.83762 -0.34787,9.6617 -2.69345,14.12335 -6.47728,12.32072 -19.09902,18.34061 -32.054726,15.28838 z m 14.394476,-7.33631 c 4.3596,-1.84174 10.35302,-8.06375 12.32329,-12.7933 2.23481,-5.36454 1.98166,-13.883118 -0.57415,-19.320361 C 117.35061,80.959645 108.78118,75.011154 101.5,75.011154 c -9.959559,0 -19.329706,8.818034 -21.093956,19.851046 -2.780122,17.38593 13.638943,32.0851 28.721836,25.71322 z M 23.300416,92.340489 C 22.273508,89.664408 24.928692,76.38245 27.998633,68.838728 36.0286,49.106797 48.979297,35.07091 67.5,26.027385 c 13.567653,-6.624987 22.325685,-8.427006 37.88267,-7.794593 13.21533,0.537221 22.72293,3.044814 33.68174,8.883427 12.94262,6.895543 25.72206,20.068431 32.78546,33.79484 4.43096,8.610766 5.57832,11.856722 7.59061,21.474446 2.11838,10.1248 0.45284,12.287775 -5.00339,6.497682 C 169.36698,83.502832 158.11943,74.94209 153.21164,72.728061 148.73058,70.706535 144.23697,70.346362 134.5,71.228278 l -3,0.271722 0.33225,-7.620939 C 132.123,57.20992 131.82926,55.596569 129.4803,50.961133 125.48502,43.07682 104.18436,23 99.814721,23 95.977875,23 77.69765,41.861674 73.868631,49.771372 c -1.861791,3.845947 -2.072396,5.550696 -1.56826,12.694355 l 0.582339,8.25181 -9.713072,-0.108768 C 53.760362,70.503402 53.274043,70.60947 47.620912,74 c -3.209609,1.925 -9.499836,7.206122 -13.978282,11.735828 -4.478447,4.529705 -8.494253,8.242205 -8.924015,8.25 -0.429761,0.0078 -1.067951,-0.732608 -1.418199,-1.645339 z"
       id="path3717"
       inkscape:connector-curvature="0" />
    <path
       style="fill:#6e4b1b"
       d="M 94,178.94206 C 84.207085,177.88485 72.341227,174.02808 63,168.86612 48.082832,160.62289 33.538115,142.78615 27.479715,125.30626 24.510438,116.73921 23.238009,108 24.959923,108 c 0.669671,0 4.440145,2.95001 8.37883,6.55559 4.159426,3.80764 10.197441,8.06175 14.404494,10.14874 7.010925,3.4779 7.500192,3.57333 15.254103,2.97539 l 8.010854,-0.61775 -0.635839,6.84139 c -0.874951,9.41412 1.91236,15.404 11.791274,25.33923 C 90.652819,167.78017 101.11416,176 103.49071,176 c 0.90344,0 6.47664,-4.8375 12.38489,-10.75 13.9651,-13.97515 16.68472,-19.09323 15.78726,-29.71017 l -0.62196,-7.35774 8.72955,0.15895 c 7.9717,0.14516 9.19652,-0.0997 14.10855,-2.82018 2.95846,-1.63853 9.61958,-6.99241 14.8025,-11.89751 11.7637,-11.13315 12.67676,-10.83336 9.53764,3.13151 -4.97249,22.12093 -18.10048,40.28964 -37.66667,52.12942 -6.94615,4.20322 -20.11114,8.69735 -28.05247,9.57627 -3.3,0.36524 -7.125,0.80517 -8.5,0.97763 -1.375,0.17246 -5.875,-0.0508 -10,-0.49612 z M 92.909124,126.50901 C 86.965106,124.59702 80.134518,118.53293 76.990566,112.37677 74.879787,108.24366 74.501094,106.12759 74.507171,98.5 74.51302,91.159493 74.91908,88.740972 76.709373,85.38353 82.317724,74.86586 90.579841,69.705882 101.8123,69.705882 c 15.14769,0 25.90596,10.737532 26.96707,26.91508 0.80083,12.209178 -4.21314,22.032698 -14.24682,27.912828 -5.47733,3.20993 -15.062881,4.08553 -21.623426,1.97522 z m 17.707906,-5.91117 C 118.72631,116.82195 124,108.38258 124,99.181342 124,78.676201 102.0941,66.885794 87.870908,79.735591 74.647675,91.681989 76.844173,112.76024 92.104761,120.36491 c 6.592858,3.28536 11.815589,3.35108 18.512269,0.23293 z M 24.014781,88.75 c 0.02445,-5.376122 2.794081,-15.467388 6.368398,-23.203529 13.389492,-28.9798 41.256578,-47.091492 72.116821,-46.87098 37.41461,0.267346 69.33535,27.651869 76.34725,65.497628 1.39137,7.509717 0.0871,7.846175 -6.50463,1.677991 -15.42625,-14.435029 -23.5671,-17.915463 -36.20484,-15.478553 l -4.36223,0.841158 0.71978,-7.167232 c 0.6764,-6.73527 0.53147,-7.549752 -2.40476,-13.514081 C 124.99723,40.186358 103.67903,21.11079 98.62703,22.378761 95.361638,23.198323 79.912496,38.51348 75.382805,45.421397 c -3.798716,5.793159 -3.882579,6.119413 -3.87238,15.064796 l 0.01043,9.143398 -9.035642,-0.0648 C 53.88905,69.503152 53.164223,69.670236 47.582956,73 44.35632,74.925 38.176854,79.9875 33.850809,84.25 29.524764,88.5125 25.538586,92 24.992636,92 c -0.54595,0 -0.985985,-1.4625 -0.977855,-3.25 z"
       id="path3715"
       inkscape:connector-curvature="0" />
    <path
       style="fill:#4c2e15"
       d="m 92.5,177.84632 c -25.545848,-3.00077 -48.072029,-19.25606 -60.0003,-43.29728 -4.237664,-8.54093 -8.60358,-23.77849 -7.211855,-25.17022 0.349971,-0.34997 3.86393,2.35197 7.808798,6.00432 4.353352,4.03053 10.062125,8.06876 14.524346,10.27411 7.000282,3.45972 7.709007,3.60647 14.820289,3.06864 l 7.468431,-0.56483 -0.58738,6.29012 c -0.761225,8.15178 2.041118,14.58703 10.18067,23.37872 C 86.927003,165.84871 100.82648,177 103.39749,177 c 3.2256,0 23.71869,-21.42914 27.0622,-28.29831 2.52862,-5.19498 2.76233,-6.51339 2.24614,-12.67057 l -0.57615,-6.87225 8.18516,0.17056 c 7.38717,0.15394 8.71702,-0.12191 13.64059,-2.82943 3.00048,-1.65 9.64912,-7.00136 14.77475,-11.89191 5.12564,-4.89055 9.62261,-8.58864 9.99327,-8.21797 1.13644,1.13644 -3.53263,19.60495 -6.6294,26.22259 -14.55344,31.09998 -46.30416,49.14404 -79.59405,45.23361 z m 1.735594,-51.76623 C 86.768942,124.1739 79.005065,116.45198 76.158606,108.10078 75.521373,106.2312 75,101.69058 75,98.010499 c 0,-5.4747 0.560821,-7.813356 3.085026,-12.864738 4.877057,-9.759854 12.406324,-14.427831 23.437314,-14.53061 6.04217,-0.0563 7.78692,0.361585 12.5,2.993847 14.89417,8.318409 18.7841,29.746762 7.89564,43.494562 -6.21837,7.85133 -17.61459,11.54677 -27.682386,8.97653 z m 16.335266,-4.46086 c 17.36607,-8.08645 19.33828,-33.472361 3.4189,-44.007307 -6.25521,-4.139507 -11.8017,-5.099219 -18.39412,-3.18275 -16.63113,4.834801 -22.874167,27.160757 -11.450856,40.949827 3.845854,4.64233 11.834222,8.60146 17.355216,8.60146 2.2,0 6.28189,-1.06255 9.07086,-2.36123 z M 25.014781,88.333302 C 25.094302,73.090334 38.819113,48.327345 53.778169,36.436962 65.003644,27.51426 84.211088,20 95.79322,20 h 3.662468 l -3.977844,3.146675 c -8.048202,6.366532 -20.006845,19.546716 -22.857969,25.192845 -2.605391,5.1595 -2.8345,6.414485 -2.401828,13.156432 l 0.478296,7.452872 -7.331774,-0.619762 c -6.816172,-0.576177 -7.772453,-0.40247 -13.598171,2.470092 -3.900971,1.923501 -9.75807,6.35081 -15.516398,11.728652 -8.776976,8.19703 -9.249244,8.49391 -9.235219,5.805496 z M 171.5,83.751562 c -7.61412,-6.87279 -15.47327,-12.257605 -20.13585,-13.796398 -2.16615,-0.714893 -6.64258,-1.007781 -11.06497,-0.72397 l -7.42708,0.476641 0.68416,-6.388586 c 1.00559,-9.390038 -2.62923,-16.306493 -14.51256,-27.615027 -4.91208,-4.674477 -10.98938,-9.977229 -13.50511,-11.783895 -6.430631,-4.618128 -4.73257,-5.523073 6.72981,-3.586515 26.93587,4.550786 46.84175,19.159072 59.07995,43.356871 3.2071,6.341186 6.89575,19.408656 6.46657,22.908558 -0.30749,2.507581 -0.45641,2.440426 -6.31492,-2.847679 z"
       id="path3713"
       inkscape:connector-curvature="0" />
    <path
       style="fill:#3c2013"
       d="m 83.241364,174.98791 c -22.581032,-5.91685 -38.87263,-19.39222 -49.863355,-41.24375 -3.667133,-7.29092 -7.301981,-18.2485 -7.363228,-22.19711 -0.0081,-0.52412 1.672719,0.65944 3.735219,2.63014 6.41707,6.13145 16.028833,12.58862 21.388631,14.36886 3.599181,1.19545 7.013762,1.555 11.413632,1.20182 l 6.278056,-0.50394 -0.525263,5.12803 c -0.288895,2.82042 -0.01149,7.02896 0.616457,9.35231 1.474134,5.45418 10.932054,17.26501 19.186614,23.9598 3.51553,2.85125 7.516873,6.09877 8.891873,7.21674 l 2.5,2.03265 -4.5,-0.0218 c -2.475,-0.012 -7.766386,-0.87768 -11.758636,-1.92376 z m 32.885596,-7.09478 c 14.9194,-14.63812 18.56711,-21.30213 17.58555,-32.12703 l -0.53883,-5.94232 5.67159,0.65826 c 10.10972,1.17336 18.21192,-2.84268 31.82724,-15.7759 4.03012,-3.82822 7.32434,-6.56569 7.32048,-6.08327 -0.0287,3.59692 -4.53401,18.42734 -7.43857,24.48617 -11.24188,23.45023 -33.9758,40.4258 -58.19052,43.45123 l -5.81056,0.72598 z M 90.163536,123.44338 C 77.814134,117.17562 72.171368,100.45589 77.972749,87.32162 83.612468,74.553346 96.533277,68.465283 109.40162,72.512875 c 18.01887,5.667629 24.04901,31.507735 10.58934,45.376995 -5.42478,5.58987 -9.38627,7.36719 -17.49096,7.84729 -6.108571,0.36185 -7.679583,0.0697 -12.336464,-2.29378 z M 110.5,122.64715 c 13.8038,-6.44171 19.16387,-22.50992 12.13559,-36.379583 C 118.17924,77.473385 111.05302,73 101.5,73 92.052896,73 84.819263,77.476345 80.503468,85.993156 73.456567,99.899546 78.792414,116.2692 92.444392,122.6263 98.83744,125.60325 104.1523,125.60938 110.5,122.64715 Z M 26.485688,84.5 C 28.913797,66.31406 43.267715,44.321779 59.929092,33.259857 69.305264,27.034773 85.585611,21.160272 93.808191,21.035129 c 1.933289,-0.02942 1.36481,0.784772 -3.5,5.012818 -8.296566,7.210614 -16.140472,16.598527 -19.032534,22.77893 -2.082931,4.451272 -2.429073,6.452249 -2.105808,12.173236 l 0.386853,6.846358 -6.645922,-0.55717 C 57.13312,66.804923 55.505469,67.07979 50.452294,69.39321 43.863691,72.409572 37.710831,77.089551 30.659055,84.448313 L 25.818109,89.5 Z m 147.988732,0.467221 c -3.99564,-4.424279 -14.45083,-12.067067 -19.95414,-14.586567 -4.82,-2.20667 -6.74666,-2.537324 -12.95712,-2.22371 l -7.29523,0.368392 0.11603,-7.012668 C 134.47598,55.951731 133.99499,53.464922 132.06051,49.5 129.53425,44.32215 116.14639,30.385639 108.25,24.71371 105.9125,23.034698 104,21.295853 104,20.849611 c 0,-1.057383 7.65339,-0.03675 16.63565,2.218483 26.52818,6.660593 49.02685,29.697641 55.3293,56.653283 1.52237,6.511213 1.07481,8.086382 -1.49053,5.245844 z"
       id="path3711"
       inkscape:connector-curvature="0" />
  </g>
</svg>
